<svg width="720" height="560" viewBox="0 0 720 560" fill="none" xmlns="http://www.w3.org/2000/svg"><defs><linearGradient id="sky" x1="360" y1="0" x2="360" y2="560"><stop stop-color="#76D9FF"/><stop offset=".56" stop-color="#C8F4FF"/><stop offset="1" stop-color="#E7F7C5"/></linearGradient><linearGradient id="grass" x1="360" y1="190" x2="360" y2="490"><stop stop-color="#9AF07A"/><stop offset="1" stop-color="#55B95A"/></linearGradient></defs><rect width="720" height="560" fill="url(#sky)"/><circle cx="565" cy="102" r="50" fill="#FFF495"/><g fill="#fff" opacity=".7"><ellipse cx="105" cy="105" rx="90" ry="24"/><circle cx="72" cy="88" r="34"/><circle cx="142" cy="83" r="39"/><ellipse cx="634" cy="191" rx="71" ry="20"/></g><path d="M0 322L111 211L188 286L286 172L369 264L465 183L573 279L720 187V391H0V322Z" fill="#6EABC3" opacity=".56"/><path d="M0 365C113 285 202 303 285 329C371 273 489 281 720 363V560H0V365Z" fill="url(#grass)"/><path d="M59 493C202 417 512 416 662 493" stroke="#E6B86C" stroke-width="26" stroke-linecap="round" opacity=".7"/><g fill="#378E45"><circle cx="85" cy="413" r="37"/><circle cx="122" cy="427" r="27"/><circle cx="606" cy="415" r="40"/><circle cx="647" cy="430" r="28"/></g><g fill="#FFF07E"><circle cx="205" cy="345" r="7"/><circle cx="503" cy="328" r="8"/><circle cx="366" cy="390" r="6"/></g></svg>