<svg xmlns="http://www.w3.org/2000/svg" viewBox="0 0 64 64" fill="none"><defs><linearGradient id="stone" x2="1" y2="1"><stop stop-color="#fff7d3"/><stop offset="1" stop-color="#c4a071"/></linearGradient><linearGradient id="roof" x2=".4" y2="1"><stop stop-color="#95f2fc"/><stop offset="1" stop-color="#458ec4"/></linearGradient></defs><path d="m4 44 28-11 28 11v8L32 63 4 52z" fill="#6d825e" stroke="#435671" stroke-width="2"/><path d="m4 44 28-11 28 11-28 11z" fill="#abe593"/><path d="M13 25h39v22L32 55l-19-8z" fill="url(#stone)" stroke="#76697c" stroke-width="2"/><path d="m32 33 20-8v22l-20 8z" fill="#b29491"/><path d="m8 26 14-17 15 3 19 15-23 10z" fill="url(#roof)" stroke="#416081" stroke-width="2.5" stroke-linejoin="round"/><path d="m12 25 21 7 18-6M24 12l9 20" stroke="#c7ffff" stroke-width="2"/><path d="M28 48V37q0-7 7-5 7 1 7 7v6" fill="#514777" stroke="#ffe4a4" stroke-width="2"/><path d="M23 10V1m1 1 12 3-12 3" stroke="#ef8c82" stroke-width="3"/><path d="M17 34v7m31-9v7" stroke="#fff7da" stroke-width="3"/></svg>
